<svg
              width="173"
              height="62"
              viewBox="0 0 173 62"
              fill="none"
              xmlns="http://www.w3.org/2000/svg"
            >
              <path
                d="M17.893 26.691C17.8448 27.8213 17.8208 29.2523 17.8208 30.9838C17.8208 32.7153 17.8448 34.1582 17.893 35.3126C17.941 36.443 18.0371 37.3447 18.1815 38.0182C18.3498 38.6915 18.5783 39.1604 18.8669 39.425C19.1795 39.6895 19.5883 39.8218 20.0934 39.8218C20.5984 39.8218 20.9952 39.6895 21.2838 39.425C21.5965 39.1604 21.8249 38.6915 21.9693 38.0182C22.1376 37.3447 22.2458 36.443 22.2939 35.3126C22.3421 34.1582 22.3661 32.7153 22.3661 30.9838C22.3661 29.2523 22.3421 27.8213 22.2939 26.691C22.2458 25.5366 22.1376 24.6227 21.9693 23.9494C21.8249 23.276 21.5965 22.8071 21.2838 22.5426C20.9952 22.2779 20.5984 22.1456 20.0934 22.1456C19.5883 22.1456 19.1795 22.2779 18.8669 22.5426C18.5783 22.8071 18.3498 23.276 18.1815 23.9494C18.0371 24.6227 17.941 25.5366 17.893 26.691Z"
                fill="#C5C5C5"
              />
              <path
                fill-rule="evenodd"
                clip-rule="evenodd"
                d="M19.1709 4.18607C10.4727 4.3722 3.5588 11.55 3.69837 20.2489L3.86985 30.9372L3.69837 41.6255C3.5588 50.3246 10.4727 57.5024 19.1709 57.6884L29.8608 57.9171L40.5506 57.6884C49.2488 57.5024 56.1629 50.3246 56.0233 41.6255L55.8518 30.9372L56.0233 20.2489C56.1629 11.55 49.2488 4.3722 40.5506 4.18607L29.8608 3.95746L19.1709 4.18607ZM30.2301 44.5474L26.1899 48.0466L22.5104 44.0784C22.2217 44.1266 21.9331 44.1627 21.6446 44.1868C21.38 44.2348 21.0793 44.2589 20.7427 44.2589H20.0934C18.3859 44.2589 16.9429 44.0304 15.7645 43.5735C14.5861 43.1165 13.6362 42.3589 12.9147 41.3009C12.1933 40.2186 11.6762 38.8358 11.3635 37.1524C11.0509 35.4449 10.8946 33.3886 10.8946 30.9838C10.8946 28.5788 11.0509 26.5347 11.3635 24.8512C11.6762 23.1437 12.1933 21.761 12.9147 20.7027C13.6362 19.6205 14.5861 18.8389 15.7645 18.3579C16.9429 17.8528 18.3859 17.6004 20.0934 17.6004C21.8009 17.6004 23.2438 17.8528 24.4222 18.3579C25.6006 18.8389 26.5506 19.6205 27.2721 20.7027C27.9935 21.761 28.5106 23.1437 28.8233 24.8512C29.1359 26.5347 29.2922 28.5788 29.2922 30.9838C29.2922 33.4608 29.1239 35.5531 28.7871 37.2606C28.4505 38.9681 27.8974 40.3629 27.1278 41.4452L30.2301 44.5474ZM41.6173 27.3763V25.9334C41.6173 24.4664 41.473 23.4683 41.1844 22.9394C40.8959 22.4102 40.4269 22.1456 39.7775 22.1456C39.2725 22.1456 38.8637 22.2779 38.5511 22.5426C38.2624 22.807 38.034 23.276 37.8656 23.9494C37.7213 24.6227 37.6252 25.5366 37.577 26.691C37.5289 27.8213 37.5049 29.2523 37.5049 30.9838C37.5049 32.7153 37.5289 34.1582 37.577 35.3126C37.6252 36.443 37.7213 37.3447 37.8656 38.0182C38.034 38.6914 38.2624 39.1604 38.5511 39.425C38.8637 39.6895 39.2725 39.8218 39.7775 39.8218C40.1863 39.8218 40.5231 39.7257 40.7876 39.5332C41.0522 39.3167 41.2565 38.9681 41.4008 38.4871C41.5451 38.0061 41.6413 37.3687 41.6895 36.5751C41.7616 35.7575 41.7976 34.7354 41.7976 33.5089H48.2909V35.4209C48.2909 37.2245 48.0504 38.7036 47.5694 39.8578C47.0885 41.0122 46.4512 41.9261 45.6576 42.5994C44.8639 43.2488 43.9501 43.6817 42.9159 43.8981C41.9059 44.1386 40.8597 44.2589 39.7775 44.2589C37.9017 44.2589 36.3626 44.0304 35.1601 43.5735C33.9577 43.1165 33.0197 42.3589 32.3463 41.3009C31.6729 40.2186 31.2039 38.8358 30.9395 37.1524C30.699 35.4449 30.5787 33.3886 30.5787 30.9838C30.5787 28.5307 30.723 26.4505 31.0116 24.743C31.3242 23.0355 31.8414 21.6527 32.5628 20.5946C33.2842 19.5363 34.2342 18.7788 35.4126 18.3218C36.5909 17.8408 38.046 17.6004 39.7775 17.6004C41.2927 17.6004 42.5792 17.7928 43.6374 18.1776C44.6955 18.5624 45.5493 19.1155 46.1987 19.837C46.872 20.5344 47.353 21.3882 47.6416 22.3982C47.9542 23.3842 48.1105 24.5025 48.1105 25.7531V27.3763H41.6173Z"
                fill="#C5C5C5"
              />
              <path
                fill-rule="evenodd"
                clip-rule="evenodd"
                d="M87.5481 22.3416L93.4292 28.4447L99.3102 22.3416H109.528L98.5303 32.8041L109.528 43.2664H99.3102L93.4292 37.1478L87.5481 43.2664H77.3148L88.3126 32.8041L77.3148 22.3416H87.5481ZM86.9812 32.8041L75.0198 21.4249H87.9391L93.4292 27.1222L98.9192 21.4249H111.377V21.4094H132.492C137.32 21.36 141.406 25.3974 141.341 30.2417C141.339 31.9842 140.868 33.5904 139.925 35.02C139.215 36.1021 138.316 36.9924 137.238 37.6693L141.74 43.45V39.7011C141.74 36.7639 143.935 34.8913 146.46 33.6495C149.01 32.3958 152.227 31.6125 154.907 30.9788L154.911 30.9778L154.941 30.9702C156.593 30.564 157.999 30.2183 159 29.8453C159.507 29.6563 159.839 29.4852 160.029 29.3398C160.053 29.3214 160.072 29.305 160.09 29.2909C160.032 29.2376 159.913 29.1581 159.679 29.0664C159.135 28.8531 158.205 28.6924 156.796 28.692C155.291 28.7076 154.011 28.83 153.138 29.1363C152.708 29.2873 152.448 29.4594 152.301 29.6208C152.177 29.7595 152.103 29.924 152.11 30.182L152.132 31.1207H142.067V30.204C142.067 28.3221 142.437 26.7486 143.175 25.4594C143.918 24.1644 145 23.2189 146.319 22.5407C148.907 21.2101 152.473 20.88 156.449 20.88C160.52 20.88 163.899 21.3498 166.292 22.5591C167.503 23.172 168.487 23.9877 169.164 25.0484C169.842 26.1119 170.174 27.3638 170.174 28.7872C170.174 31.4215 168.585 33.0993 166.637 34.1929C164.745 35.2546 162.364 35.8576 160.386 36.34H169.831V44.152H142.286L142.298 44.1676H131.265L127.318 39.0609H121.388V44.1676H111.806L111.823 44.1832H98.9185L93.4292 38.472L87.9398 44.1832H75.0198L86.9812 32.8041ZM111.377 43.7587V21.8493L99.8616 32.8041L111.377 43.7587ZM127.77 38.1442L131.717 43.2508H140.421L135.85 37.3812C136.136 37.2487 136.41 37.102 136.672 36.9416C137.672 36.3292 138.503 35.5157 139.157 34.5166C140 33.2399 140.421 31.8076 140.421 30.2351C140.484 25.9069 136.818 22.2794 132.497 22.3261H112.295V43.2508H120.469V38.1442H127.77ZM155.575 37.2567C155.862 36.9067 156.38 36.6091 157.069 36.34C157.88 36.0224 158.925 35.7443 160.099 35.4664C164.124 34.4854 169.256 33.1465 169.256 28.7872C169.256 23.6806 164.514 21.7967 156.449 21.7967C148.865 21.7967 143.487 23.0322 143.02 29.2872C142.997 29.5816 142.985 29.887 142.985 30.204H151.192C151.191 30.1695 151.191 30.1354 151.192 30.1019C151.237 28.242 153.804 27.8058 156.792 27.7752C159.708 27.7752 161.05 28.4291 161.05 29.3166C161.05 30.412 158.462 31.0488 155.211 31.8481L155.123 31.8698C149.725 33.1465 142.658 34.9214 142.658 39.7011V43.2352H168.912V37.2567H155.575ZM160.141 29.3612C160.141 29.3612 160.136 29.3554 160.133 29.3419C160.141 29.3541 160.141 29.3612 160.141 29.3612ZM131.314 30.2351C131.314 29.7451 130.928 29.3615 130.438 29.3615H121.388V31.0933H130.438C130.702 31.0933 130.886 31.0132 131.051 30.848C131.24 30.6599 131.314 30.4718 131.314 30.2351ZM132.232 30.2351C132.232 29.2387 131.436 28.4447 130.438 28.4447H120.469V32.0099H130.438C130.936 32.0099 131.359 31.8387 131.701 31.4963C132.06 31.1381 132.232 30.7178 132.232 30.2351Z"
                fill="#C5C5C5"
              />
              <path
                d="M78.0713 58.3622H81.9864V53.0016L85.9087 58.3622H87.8662L91.7887 53.0016V58.3622H95.7038V48.3137H90.81L86.8876 53.338L82.9726 48.3137H78.0713V58.3622Z"
                fill="#C5C5C5"
              />
              <path
                d="M103.952 48.067C100.172 48.0745 97.0787 49.166 97.0936 52.9716V53.7043C97.0787 57.5024 100.172 58.6015 103.952 58.6089C107.725 58.6015 110.818 57.5024 110.804 53.7043V52.9716C110.804 49.1735 107.733 48.067 103.952 48.067ZM106.888 53.4576C106.911 55.1024 105.551 55.4015 103.952 55.4239C102.346 55.4015 100.986 55.1024 101.009 53.4576V53.2109C100.986 51.5734 102.346 51.2744 103.952 51.252C105.551 51.2744 106.911 51.5734 106.888 53.2109V53.4576Z"
                fill="#C5C5C5"
              />
              <path
                d="M121.771 53.353C121.771 54.3623 121.196 55.1922 120.18 55.1922H115.892V51.5137H120.18C121.196 51.5137 121.771 52.3361 121.771 53.353ZM111.976 48.3288V58.3771H120.912C123.669 58.4146 125.717 56.0819 125.694 53.353C125.717 50.609 123.669 48.2913 120.912 48.3288H111.976Z"
                fill="#C5C5C5"
              />
              <path
                d="M136.594 53.4651C136.617 55.1174 135.258 55.4015 133.658 55.4239C132.052 55.4015 130.7 55.1174 130.715 53.4651V48.3137H126.8V53.7118C126.785 57.5099 129.893 58.6015 133.658 58.6089C137.424 58.6015 140.532 57.5099 140.517 53.7118V48.3137H136.594V53.4651Z"
                fill="#C5C5C5"
              />
              <path
                d="M142.28 48.3137V58.3622H154.033V55.1773H146.195V48.3137H142.28Z"
                fill="#C5C5C5"
              />
              <path
                d="M155.37 58.3771H167.123V55.7978H159.285V54.5117H167.123V52.1866H159.285V50.9005H167.123V48.3287H155.37V58.3771Z"
                fill="#C5C5C5"
              />
              <path
                d="M80.3256 10.0329V7.91527H86.1284C86.4095 7.91527 86.6542 8.01698 86.8537 8.22963C87.0623 8.43317 87.162 8.68275 87.162 8.97864C87.162 9.26542 87.0623 9.51501 86.8537 9.72778C86.6542 9.9312 86.4095 10.0329 86.1284 10.0329H80.3256ZM75.5747 4.28115V16.7094H80.3256V13.6763H87.3162C89.8277 13.7133 91.9584 11.5402 91.9221 8.97864C91.9584 6.40801 89.8277 4.25332 87.3162 4.28115H75.5747Z"
                fill="#C5C5C5"
              />
              <path
                d="M101.379 3.95746C96.7908 3.96669 93.0372 5.31684 93.0552 10.0237V10.93C93.0372 15.6276 96.7908 16.9868 101.379 16.9961C105.957 16.9868 109.711 15.6276 109.693 10.93V10.0237C109.693 5.32608 105.966 3.95746 101.379 3.95746ZM104.941 10.6247C104.969 12.6591 103.319 13.029 101.379 13.0568C99.4292 13.029 97.7791 12.6591 97.8063 10.6247V10.3196C97.7791 8.29442 99.4292 7.92454 101.379 7.89683C103.319 7.92454 104.969 8.29442 104.941 10.3196V10.6247Z"
                fill="#C5C5C5"
              />
              <path
                d="M128.216 12.1506L125.396 4.28119H120.047L117.219 12.1506L114.398 4.28119H109.049L114.398 16.7094H120.047L122.722 10.4953L125.396 16.7094H131.045L136.395 4.28119H131.045L128.216 12.1506Z"
                fill="#C5C5C5"
              />
              <path
                d="M136.758 16.7094H151.019V13.5192H141.508V11.9286H151.019V9.05268H141.508V7.46218H151.019V4.28119H136.758V16.7094Z"
                fill="#C5C5C5"
              />
              <path
                d="M153.549 4.27181V16.7002H158.3V13.6671H162.543L164.837 16.7002H169.896L167.239 13.2139C168.038 12.8348 168.681 12.2615 169.161 11.5125C169.652 10.7542 169.896 9.90352 169.896 8.96943C169.933 6.39867 167.801 4.24411 165.291 4.27181H153.549ZM164.093 7.90606C164.674 7.90606 165.137 8.37766 165.137 8.96943C165.137 9.25608 165.036 9.5058 164.828 9.71844C164.629 9.92199 164.383 10.0237 164.093 10.0237H158.3V7.90606H164.093Z"
                fill="#C5C5C5"
              />
            </svg>