 <svg
              width="77"
              height="62"
              viewBox="0 0 77 62"
              fill="none"
              xmlns="http://www.w3.org/2000/svg"
            >
              <path
                d="M25.661 21.3084C25.661 21.1509 25.661 18.8597 25.661 18.8597H24.2995C24.2995 18.8597 24.2995 21.1153 24.2995 21.1865C24.2995 21.6031 23.9134 21.8825 23.2632 21.8825C22.5824 21.8825 22.2115 21.6132 22.2115 21.1814C22.2115 21.1103 22.2115 18.8597 22.2115 18.8597H20.8347C20.8347 18.8597 20.8347 20.9985 20.8347 21.1814C20.8347 22.3905 21.8254 22.9036 23.2073 22.9036C24.6856 22.9036 25.661 22.3854 25.661 21.3084Z"
                fill="#C5C5C5"
              />
              <path
                d="M30.2463 22.8477V21.786H27.818V18.8597H26.4412V22.8477H30.2463Z"
                fill="#C5C5C5"
              />
              <path
                d="M34.3379 19.8606V18.8597H29.5776V19.8606H31.2592V22.8477H32.6512V19.8606H34.3379Z"
                fill="#C5C5C5"
              />
              <path
                d="M36.1683 22.8477V18.8597H34.7712V22.8477H36.1683Z"
                fill="#C5C5C5"
              />
              <path
                d="M42.578 22.8477V18.8597H40.8558L39.7686 21.2526L38.7323 18.8597H36.9541V22.8477H38.2496V20.6937L39.1843 22.8477H40.3427L41.2876 20.6937V22.8477H42.578Z"
                fill="#C5C5C5"
              />
              <path
                d="M44.7358 22.1111H46.8899L47.2405 22.8477H48.7086L46.6968 18.8597H45.0559L42.9272 22.8477H44.3649L44.7358 22.1111ZM46.458 21.2169H45.1829L45.6858 20.2567L45.8382 19.891L45.9805 20.2517L46.458 21.2169Z"
                fill="#C5C5C5"
              />
              <path
                d="M53.0269 19.8606V18.8597H48.2668V19.8606H49.9484V22.8477H51.3405V19.8606H53.0269Z"
                fill="#C5C5C5"
              />
              <path
                d="M57.6561 22.8477V21.8571H54.7968V21.3389H57.5393V20.3686H54.7968V19.8554H57.6209V18.8597H53.4556V22.8477H57.6561Z"
                fill="#C5C5C5"
              />
              <path
                d="M31.2175 24.9677H29.9016C29.9016 24.9677 29.043 27.4774 29.043 27.5383C29.043 27.4774 28.2403 24.9677 28.2403 24.9677H26.8128C26.8128 24.9677 26.0151 27.4774 26.0151 27.5383C26.0151 27.4774 25.1515 24.9677 25.1515 24.9677H23.6731L25.1668 28.9558H26.6553C26.6553 28.9558 27.458 26.5731 27.4631 26.5071C27.4681 26.5731 28.2657 28.9558 28.2657 28.9558H29.7593L31.2175 24.9677Z"
                fill="#C5C5C5"
              />
              <path
                d="M33.0179 28.9558V24.9677H31.6208V28.9558H33.0179Z"
                fill="#C5C5C5"
              />
              <path
                d="M38.4523 28.9558V24.9677H37.1517V27.137L35.2364 24.9677H33.8037V28.9558H35.1145V26.7356L37.0907 28.9558H38.4523Z"
                fill="#C5C5C5"
              />
              <path
                d="M43.8945 28.9558V24.9677H42.594V27.137L40.6787 24.9677H39.2461V28.9558H40.5568V26.7356L42.533 28.9558H43.8945Z"
                fill="#C5C5C5"
              />
              <path
                d="M48.8901 28.9558V27.9651H46.03V27.4469H48.7733V26.4766H46.03V25.9634H48.8546V24.9677H44.6887V28.9558H48.8901Z"
                fill="#C5C5C5"
              />
              <path
                d="M54.2607 26.1819C54.2607 25.8212 54.1739 25.5621 53.991 25.3741C53.7523 25.1201 53.341 24.9677 52.7107 24.9677H49.5359V28.9558H50.8923V27.5486H52.1269L53.1178 28.9558H54.6317L53.4278 27.33C53.6965 27.2894 53.9156 27.1269 54.0571 26.9338C54.1842 26.756 54.2607 26.4918 54.2607 26.1819ZM52.9401 26.3089C52.9401 26.375 52.9298 26.4562 52.8936 26.5172C52.843 26.6188 52.7107 26.6595 52.4927 26.6595H50.8974V25.9329H52.4668C52.6807 25.9329 52.8233 25.9685 52.8936 26.1007C52.9298 26.1514 52.9401 26.2327 52.9401 26.3089Z"
                fill="#C5C5C5"
              />
              <path
                d="M26.2338 32.8793C26.2338 32.8141 26.2338 30.9305 26.2338 30.9305H25.7581C25.7581 30.9305 25.7581 32.8064 25.7581 32.8486C25.7581 33.3012 25.3323 33.5583 24.7185 33.5583C23.9935 33.5583 23.6367 33.2821 23.6367 32.8448C23.6367 32.8025 23.6367 30.9305 23.6367 30.9305H23.1572C23.1572 30.9305 23.1572 32.7565 23.1572 32.8294C23.1572 33.6273 23.7787 33.9802 24.6994 33.9802C25.6507 33.9802 26.2338 33.6043 26.2338 32.8793Z"
                fill="#C5C5C5"
              />
              <path
                d="M29.6469 33.9419V33.5008H27.5715V30.9305H27.092V33.9419H29.6469Z"
                fill="#C5C5C5"
              />
              <path
                d="M32.3715 31.3678V30.9305H29.1721V31.3678H30.5301V33.9419H31.0135V31.3678H32.3715Z"
                fill="#C5C5C5"
              />
              <path
                d="M35.7809 31.7821C35.7809 31.5673 35.7348 31.41 35.6544 31.2834C35.5124 31.0724 35.24 30.9305 34.7874 30.9305H32.8386V33.9419H33.3104V32.6721H34.6837L35.5238 33.9419H36.0763L35.1671 32.5915C35.3973 32.5648 35.5776 32.4342 35.6735 32.2655C35.7426 32.1504 35.7809 31.9816 35.7809 31.7821ZM35.3052 31.8204C35.3052 31.9049 35.2861 32.0085 35.2516 32.0775C35.1902 32.1887 35.0482 32.2463 34.8181 32.2501H33.3143C33.3143 32.2425 33.3143 31.3602 33.3143 31.3602H34.7298C35.0175 31.3602 35.171 31.4292 35.2516 31.5596C35.2861 31.621 35.3052 31.7246 35.3052 31.8204Z"
                fill="#C5C5C5"
              />
              <path
                d="M37.1463 33.1977H39.0222L39.4058 33.9419H39.9198L38.393 30.9305H37.8291L36.2524 33.9419H36.7549L37.1463 33.1977ZM38.8227 32.7718H37.3535L37.9633 31.6172L38.0977 31.3372L38.2319 31.6172L38.8227 32.7718Z"
                fill="#C5C5C5"
              />
              <path
                d="M44.785 33.6542C44.904 33.516 44.9577 33.3204 44.9577 33.1094C44.9577 32.91 44.9002 32.7105 44.7812 32.5877C44.6623 32.4727 44.4705 32.3768 44.2595 32.3576C44.3822 32.3384 44.4781 32.2617 44.5433 32.1811C44.647 32.0621 44.7083 31.8704 44.7083 31.6786C44.7083 31.4752 44.647 31.2911 44.5165 31.1645C44.3746 31.0226 44.1329 30.9305 43.7953 30.9305H41.7698V33.9419H43.9449C44.3516 33.9419 44.6354 33.8383 44.785 33.6542ZM44.2134 31.7745C44.2134 31.9087 44.1712 32.0276 44.0984 32.0967C44.0254 32.1773 43.9027 32.2118 43.7723 32.2118H42.2378V31.3448H43.684C43.8605 31.3448 43.9948 31.3793 44.0868 31.4637C44.1674 31.5404 44.2134 31.6517 44.2134 31.7745ZM44.3669 33.3626C44.271 33.4701 44.106 33.5238 43.8643 33.5238H42.2378V32.63H43.8759C44.0984 32.63 44.2518 32.6759 44.3439 32.7642C44.4282 32.8448 44.4628 32.9483 44.4628 33.0673C44.4628 33.19 44.436 33.2936 44.3669 33.3626Z"
                fill="#C5C5C5"
              />
              <path
                d="M48.4402 33.9419V33.5008H46.1002V32.6414H48.3481V32.2041H46.1002V31.3678H48.4133V30.9305H45.6321V33.9419H48.4402Z"
                fill="#C5C5C5"
              />
              <path
                d="M52.1878 33.0519C52.1878 32.5608 51.8623 32.3077 51.0605 32.2156C50.9258 32.1965 50.6342 32.1658 50.4769 32.1466C49.7327 32.0583 49.5064 31.9586 49.5064 31.7016C49.5064 31.4523 49.7558 31.3103 50.5076 31.3103C51.0904 31.3103 51.3901 31.4254 51.5399 31.6325C51.5823 31.69 51.605 31.7592 51.6164 31.8128H52.13C52.1155 31.7246 52.0804 31.6018 52.0266 31.5021C51.82 31.1454 51.3942 30.8883 50.5076 30.8883C49.4489 30.8844 49.0116 31.2681 49.0116 31.7438C49.0116 32.2194 49.353 32.4611 50.2392 32.5648C50.3926 32.5839 50.6649 32.6146 50.7992 32.63C51.4862 32.7143 51.7011 32.8179 51.7011 33.1056C51.7011 33.3703 51.4552 33.5621 50.6687 33.5621C50.0244 33.5621 49.679 33.447 49.541 33.2245C49.4988 33.1632 49.4719 33.0673 49.4681 33.0021H48.9617C48.9732 33.1401 49.0116 33.2897 49.0806 33.4087C49.2801 33.7731 49.7481 33.9841 50.6534 33.9841C51.7352 33.9841 52.1878 33.635 52.1878 33.0519Z"
                fill="#C5C5C5"
              />
              <path
                d="M55.6277 31.3678V30.9305H52.4285V31.3678H53.7863V33.9419H54.2699V31.3678H55.6277Z"
                fill="#C5C5C5"
              />
              <path
                d="M21.7994 36.5593C21.7994 36.2524 21.738 36.0452 21.6343 35.888C21.4886 35.6616 21.2047 35.5427 20.7098 35.5427H18.8071V38.5541H19.2828V37.572C19.2828 37.572 20.6255 37.572 20.6907 37.572C21.1549 37.5682 21.4732 37.4608 21.6421 37.2153C21.7494 37.0657 21.7994 36.8508 21.7994 36.5593ZM21.316 36.5593C21.316 36.7127 21.3006 36.8278 21.2508 36.9046C21.1625 37.0464 20.9822 37.1347 20.6101 37.1347C20.5756 37.1347 19.2828 37.1347 19.2828 37.1347V35.9724H20.6255C20.9745 35.9724 21.1549 36.0529 21.2508 36.2102C21.2967 36.2792 21.316 36.4059 21.316 36.5593Z"
                fill="#C5C5C5"
              />
              <path
                d="M25.2715 38.5541V38.1129H22.9314V37.2536H25.1794V36.8163H22.9314V35.98H25.2446V35.5427H22.4634V38.5541H25.2715Z"
                fill="#C5C5C5"
              />
              <path
                d="M28.9308 36.3943C28.9308 36.1795 28.8849 36.0222 28.8043 35.8956C28.6623 35.6846 28.39 35.5427 27.9373 35.5427H25.9885V38.5541H26.4603V37.2843H27.8337L28.6738 38.5541H29.2263L28.317 37.2037C28.5473 37.1769 28.7276 37.0464 28.8235 36.8777C28.8925 36.7626 28.9308 36.5938 28.9308 36.3943ZM28.4552 36.4326C28.4552 36.5171 28.436 36.6207 28.4015 36.6897C28.3401 36.8009 28.1981 36.8585 27.968 36.8623H26.4642C26.4642 36.8546 26.4642 35.9724 26.4642 35.9724H27.8797C28.1674 35.9724 28.3209 36.0414 28.4015 36.1718C28.436 36.2332 28.4552 36.3367 28.4552 36.4326Z"
                fill="#C5C5C5"
              />
              <path
                d="M32.4875 35.98V35.5427H29.8098V38.5541H30.2855V37.2728H32.3878V36.824H30.2855V35.98H32.4875Z"
                fill="#C5C5C5"
              />
              <path
                d="M34.6707 35.489C34.0301 35.489 33.5889 35.6463 33.2743 35.9762C33.0096 36.2332 32.8945 36.59 32.8945 37.0388C32.8945 37.5298 33.0442 37.8981 33.3204 38.1475C33.6158 38.4429 34.0684 38.5962 34.6707 38.5962C35.2922 38.5962 35.7755 38.4429 36.0632 38.1321C36.3126 37.8789 36.443 37.5184 36.443 37.035C36.443 36.567 36.3317 36.2102 36.0671 35.957C35.764 35.6425 35.3113 35.489 34.6707 35.489ZM34.6707 38.1667C34.2487 38.1667 33.9495 38.0746 33.7232 37.8905C33.493 37.7025 33.3817 37.4147 33.3817 37.0465C33.3817 36.7012 33.4776 36.4135 33.6618 36.2409C33.8728 36.0414 34.195 35.9225 34.6669 35.9225C35.154 35.9225 35.4571 36.0376 35.6834 36.237C35.8753 36.4059 35.9596 36.705 35.9596 37.0426C35.9596 37.384 35.8715 37.6757 35.6757 37.852C35.4494 38.063 35.1311 38.1667 34.6707 38.1667Z"
                fill="#C5C5C5"
              />
              <path
                d="M40.0424 36.3943C40.0424 36.1795 39.9963 36.0222 39.9158 35.8956C39.7738 35.6846 39.5015 35.5427 39.0489 35.5427H37.1001V38.5541H37.5719V37.2843H38.9452L39.7854 38.5541H40.3377L39.4286 37.2037C39.6587 37.1769 39.8391 37.0464 39.9349 36.8777C40.0041 36.7626 40.0424 36.5938 40.0424 36.3943ZM39.5667 36.4326C39.5667 36.5171 39.5475 36.6207 39.513 36.6897C39.4517 36.8009 39.3097 36.8585 39.0796 36.8623H37.5757C37.5757 36.8546 37.5757 35.9724 37.5757 35.9724H38.9913C39.279 35.9724 39.4324 36.0414 39.513 36.1718C39.5475 36.2332 39.5667 36.3367 39.5667 36.4326Z"
                fill="#C5C5C5"
              />
              <path
                d="M44.6307 38.5541V35.5427H44.0093L42.7702 38.0209L41.5541 35.5427H40.9211V38.5541H41.3777V36.237L42.5131 38.5541H43.0118L44.1742 36.237V38.5541H44.6307Z"
                fill="#C5C5C5"
              />
              <path
                d="M45.9781 37.8099H47.854L48.2375 38.5541H48.7516L47.2248 35.5427H46.6609L45.0842 38.5541H45.5867L45.9781 37.8099ZM47.6544 37.384H46.1852L46.7951 36.2294L46.9295 35.9493L47.0637 36.2294L47.6544 37.384Z"
                fill="#C5C5C5"
              />
              <path
                d="M52.2073 38.5541V35.5427H51.7506V37.8827L49.7563 35.5427H49.2153V38.5541H49.6795V36.1987L51.6896 38.5541H52.2073Z"
                fill="#C5C5C5"
              />
              <path
                d="M56.3459 37.4301H55.8468C55.8313 37.5682 55.7775 37.7063 55.6814 37.8099C55.4748 38.0516 55.1451 38.1551 54.6388 38.1551C54.2131 38.1551 53.7563 38.0362 53.5373 37.7255C53.4226 37.5798 53.3492 37.3649 53.3492 37.0426C53.3492 36.7549 53.3999 36.5401 53.5104 36.3943C53.6944 36.099 54.0818 35.9455 54.6274 35.9455C55.1565 35.9455 55.4903 36.0912 55.667 36.2946C55.7662 36.402 55.8241 36.5286 55.8427 36.6782H56.3417C56.3262 36.5094 56.2725 36.3099 56.1578 36.1412C55.9119 35.7767 55.4593 35.489 54.6305 35.489C53.8411 35.489 53.3688 35.7422 53.1074 36.1219C52.939 36.3406 52.8542 36.6475 52.8542 37.0388C52.8542 37.4761 52.9586 37.7984 53.1384 38.0247C53.3998 38.3815 53.902 38.5962 54.6615 38.5962C55.4407 38.5962 55.9046 38.3623 56.1351 37.9902C56.2653 37.8099 56.3304 37.595 56.3459 37.4301Z"
                fill="#C5C5C5"
              />
              <path
                d="M59.7786 38.5541V38.1129H57.4381V37.2536H59.6866V36.8163H57.4381V35.98H59.7517V35.5427H56.97V38.5541H59.7786Z"
                fill="#C5C5C5"
              />
              <path
                d="M24.6957 41.5456L25.2694 43.3114H27.126L25.624 44.4027L26.1977 46.1683L24.6957 45.0771L23.1936 46.1683L23.7674 44.4027L22.2654 43.3114H24.122L24.6957 41.5456Z"
                fill="#C5C5C5"
              />
              <path
                d="M31.319 41.5457L31.9044 43.3114H33.7989L32.2663 44.4027L32.8516 46.1684L31.319 45.0771L29.7864 46.1684L30.3718 44.4027L28.8391 43.3114H30.7336L31.319 41.5457Z"
                fill="#C5C5C5"
              />
              <path
                d="M37.8898 41.5457L38.4753 43.3114H40.3697L38.8371 44.4027L39.4226 46.1684L37.8898 45.0771L36.3572 46.1684L36.9426 44.4027L35.4099 43.3114H37.3044L37.8898 41.5457Z"
                fill="#C5C5C5"
              />
              <path
                d="M44.4609 41.5457L45.0462 43.3114H46.9408L45.4081 44.4027L45.9935 46.1684L44.4609 45.0771L42.9282 46.1684L43.5136 44.4027L41.981 43.3114H43.8755L44.4609 41.5457Z"
                fill="#C5C5C5"
              />
              <path
                d="M51.0842 41.5457L51.6577 43.3114H53.5146L52.0121 44.4027L52.5856 46.1684L51.0842 45.0771L49.5821 46.1684L50.1559 44.4027L48.6538 43.3114H50.5104L51.0842 41.5457Z"
                fill="#C5C5C5"
              />
              <path
                d="M27.9136 11.7554L28.3474 13.0905H29.7512L28.6156 13.9156L29.0494 15.2506L27.9136 14.4256L26.778 15.2506L27.2118 13.9156L26.0762 13.0905H27.48L27.9136 11.7554Z"
                fill="#C5C5C5"
              />
              <path
                d="M32.9215 11.7535L33.3642 13.0886H34.7965L33.6377 13.9137L34.0803 15.2487L32.9215 14.4236L31.7626 15.2487L32.2053 13.9137L31.0464 13.0886H32.4788L32.9215 11.7535Z"
                fill="#C5C5C5"
              />
              <path
                d="M37.8897 11.7535L38.3323 13.0886H39.7647L38.6059 13.9137L39.0485 15.2487L37.8897 14.4236L36.7309 15.2487L37.1735 13.9137L36.0146 13.0886H37.4471L37.8897 11.7535Z"
                fill="#C5C5C5"
              />
              <path
                d="M42.8585 11.7535L43.3011 13.0886H44.7335L43.5747 13.9137L44.0173 15.2487L42.8585 14.4236L41.6996 15.2487L42.1423 13.9137L40.9834 13.0886H42.4158L42.8585 11.7535Z"
                fill="#C5C5C5"
              />
              <path
                d="M47.8655 11.7535L48.2993 13.0886H49.7031L48.5675 13.9137L49.0013 15.2487L47.8655 14.4236L46.7299 15.2487L47.1637 13.9137L46.0281 13.0886H47.4318L47.8655 11.7535Z"
                fill="#C5C5C5"
              />
              <path
                fill-rule="evenodd"
                clip-rule="evenodd"
                d="M7.91905 35.7847C6.00469 23.8075 11.5917 11.9574 22.7766 6.86865L22.8799 7.09557C11.8075 12.1331 6.26664 23.8672 8.16519 35.7454C10.2656 48.8866 20.867 56.7678 33.8493 57.1478L33.842 57.397C20.7585 57.014 10.0411 49.0615 7.91905 35.7847Z"
                fill="#C5C5C5"
              />
              <path
                d="M20.3515 9.9254C18.2846 9.97252 15.8654 11.1381 14.438 12.8311C15.5827 13.8941 17.4245 13.5011 18.75 13.2837C20.6417 12.9735 22.6534 12.3725 24.4385 11.5218C23.7045 9.95939 21.7273 9.89409 20.3515 9.9254Z"
                fill="#C5C5C5"
              />
              <path
                d="M18.726 7.37552C17.5017 9.28264 16.0426 11.1781 14.4548 12.8472C13.1263 11.6002 13.9282 9.52495 14.4704 8.23442C15.4526 5.89599 17.8075 3.87944 20.2694 2.84766C20.9451 4.38495 19.4774 6.20496 18.726 7.37552Z"
                fill="#C5C5C5"
              />
              <path
                d="M14.3701 15.2734C12.4347 15.9614 10.7716 17.8981 9.93652 19.8424C11.3282 20.4895 12.9104 19.555 14.0678 18.9328C15.6571 18.0785 17.2785 16.8997 18.5542 15.5355C17.4015 14.3192 15.6513 14.8181 14.3701 15.2734Z"
                fill="#C5C5C5"
              />
              <path
                d="M12.0243 13.3677C11.6006 15.5429 10.8903 17.7974 9.95739 19.8523C8.32906 19.0843 8.39106 16.8848 8.46081 15.485C8.57985 13.0958 9.91647 10.3713 11.7774 8.63989C12.9166 9.86129 12.2942 11.9821 12.0243 13.3677Z"
                fill="#C5C5C5"
              />
              <path
                d="M10.6462 22.1779C9.03353 23.4502 8.05599 25.8079 7.82959 27.9134C9.3552 28.0885 10.5746 26.7001 11.482 25.7476C12.7174 24.4507 13.8868 22.824 14.6294 21.1222C13.1751 20.3288 11.6967 21.3492 10.6462 22.1779Z"
                fill="#C5C5C5"
              />
              <path
                d="M7.85217 21.1039C8.13974 23.3005 8.14036 25.6768 7.85268 27.9162C6.07845 27.6983 5.48997 25.568 5.14235 24.2316C4.54219 21.9248 4.94457 18.9451 6.11369 16.7025C7.57472 17.5113 7.66844 19.6999 7.85217 21.1039Z"
                fill="#C5C5C5"
              />
              <path
                d="M9.38048 29.7145C8.10431 31.584 7.65553 34.5136 8.22945 36.8683C9.91585 36.469 10.7518 34.5597 11.4231 33.2113C12.3151 31.4192 13.0692 29.3285 13.3391 27.2772C11.51 26.8965 10.2211 28.483 9.38048 29.7145Z"
                fill="#C5C5C5"
              />
              <path
                d="M6.03064 29.5255C7.02492 31.8275 7.80085 34.3611 8.25489 36.8626C6.3208 37.2781 4.9288 35.2472 4.12011 33.9006C2.68037 31.5034 2.26094 28.1803 2.78835 25.3126C4.55856 25.6676 5.4248 28.1233 6.03064 29.5255Z"
                fill="#C5C5C5"
              />
              <path
                d="M10.2733 37.848C9.5881 40.1157 10.0644 43.1987 11.4517 45.3307C12.9763 44.338 13.1873 42.1534 13.4034 40.5869C13.6883 38.5199 13.8224 36.23 13.4685 34.0865C11.5185 34.3355 10.731 36.333 10.2733 37.848Z"
                fill="#C5C5C5"
              />
              <path
                d="M6.88456 38.8188C8.59535 40.7818 10.1735 43.02 11.4749 45.316C9.7098 46.418 7.63849 44.9125 6.38226 43.8471C4.15367 41.9573 2.70659 38.7451 2.36353 35.7169C4.21815 35.4676 5.85258 37.6345 6.88456 38.8188Z"
                fill="#C5C5C5"
              />
              <path
                d="M13.8689 45.5666C14.0159 48.2063 15.7345 50.9761 18.0227 52.5527C19.1277 51.0398 18.4351 48.7217 18.0581 47.1036C17.5507 44.925 16.8483 42.6564 15.8045 40.6435C13.9844 41.6053 13.7721 43.8282 13.8689 45.5666Z"
                fill="#C5C5C5"
              />
              <path
                d="M10.7913 47.7963C13.2703 49.1738 15.7423 50.7994 18.0406 52.5291C16.6642 54.3415 13.9131 53.6188 12.2077 53.0362C9.20231 52.0096 6.52298 49.3033 5.12354 46.2966C6.89787 45.3826 9.32683 46.9825 10.7913 47.7963Z"
                fill="#C5C5C5"
              />
              <path
                d="M20.9292 52.0153C22.4171 54.7307 25.8078 56.5022 29.0008 56.9286C29.3445 54.9545 27.2085 53 26.0446 51.7213C24.3874 49.9009 22.6606 48.0118 20.7245 46.4378C19.2741 48.1219 20.0409 50.3941 20.9292 52.0153Z"
                fill="#C5C5C5"
              />
              <path
                d="M18.8045 55.4567C22.1867 55.8084 25.6262 56.3146 29.0065 56.8983C28.6838 59.3891 24.7312 59.791 22.9368 59.9381C19.2576 60.2396 15.1648 58.7607 12.3149 56.271C13.7304 54.6055 17.0029 55.2695 18.8045 55.4567Z"
                fill="#C5C5C5"
              />
              <path
                d="M25.3189 4.77811C23.0481 5.42591 20.3902 6.65485 19.0771 8.92343C21.4605 8.66365 23.803 7.8156 26.0938 7.16945C28.6598 6.4456 31.3616 5.90424 33.846 4.90511C31.1252 3.8166 27.9179 4.03659 25.3189 4.77811Z"
                fill="#C5C5C5"
              />
              <path
                fill-rule="evenodd"
                clip-rule="evenodd"
                d="M69.2491 35.7454C71.1473 23.8672 65.6066 12.1333 54.5344 7.09557L54.6378 6.86865C65.8226 11.9575 71.4098 23.8075 69.495 35.7847C67.3736 49.0615 56.6559 57.014 43.5724 57.397L43.5652 57.1478C56.5474 56.7678 67.1483 48.8866 69.2491 35.7454Z"
                fill="#C5C5C5"
              />
              <path
                d="M57.0632 9.9254C59.1298 9.97252 61.5489 11.1381 62.9769 12.8311C61.832 13.8941 59.9896 13.5011 58.6648 13.2837C56.7728 12.9735 54.7609 12.3725 52.9763 11.5218C53.71 9.95939 55.6868 9.89409 57.0632 9.9254Z"
                fill="#C5C5C5"
              />
              <path
                d="M58.6884 7.37552C59.9129 9.28264 61.372 11.1781 62.9592 12.8472C64.2881 11.6002 63.4862 9.52495 62.9437 8.23442C61.962 5.89599 59.6071 3.87944 57.1446 2.84766C56.4688 4.38495 57.9372 6.20496 58.6884 7.37552Z"
                fill="#C5C5C5"
              />
              <path
                d="M63.045 15.2734C64.9805 15.9614 66.6431 17.8981 67.4781 19.8424C66.0862 20.4895 64.5041 19.555 63.3468 18.9328C61.7575 18.0785 60.1362 16.8997 58.8611 15.5355C60.0133 14.3192 61.7637 14.8181 63.045 15.2734Z"
                fill="#C5C5C5"
              />
              <path
                d="M65.3907 13.3677C65.8144 15.5429 66.5243 17.7974 67.4574 19.8523C69.0859 19.0843 69.0239 16.8848 68.9537 15.485C68.8348 13.0958 67.4987 10.3713 65.6377 8.63989C64.4979 9.86129 65.121 11.9821 65.3907 13.3677Z"
                fill="#C5C5C5"
              />
              <path
                d="M66.7681 22.1779C68.3811 23.4502 69.3587 25.8079 69.585 27.9134C68.0598 28.0885 66.8404 26.7001 65.9332 25.7476C64.6973 24.4507 63.5276 22.824 62.7856 21.1222C64.2395 20.3288 65.7182 21.3492 66.7681 22.1779Z"
                fill="#C5C5C5"
              />
              <path
                d="M69.5633 21.1039C69.275 23.3002 69.275 25.6768 69.5622 27.9162C71.3365 27.6983 71.9255 25.568 72.2727 24.2316C72.873 21.9248 72.47 18.9451 71.3013 16.7025C69.8402 17.5113 69.7462 19.6999 69.5633 21.1039Z"
                fill="#C5C5C5"
              />
              <path
                d="M68.0339 29.7145C69.3101 31.584 69.7585 34.5136 69.185 36.8683C67.4986 36.469 66.6627 34.5598 65.991 33.2113C65.0992 31.4192 64.3449 29.3285 64.0752 27.2772C65.9042 26.8965 67.1938 28.483 68.0339 29.7145Z"
                fill="#C5C5C5"
              />
              <path
                d="M71.3839 29.5255C70.3898 31.8275 69.6138 34.3611 69.1602 36.8626C71.0935 37.2781 72.4854 35.2472 73.2945 33.9006C74.734 31.5034 75.1535 28.1803 74.6265 25.3126C72.8564 25.6676 71.9894 28.1233 71.3839 29.5255Z"
                fill="#C5C5C5"
              />
              <path
                d="M67.1412 37.848C67.8263 40.1157 67.351 43.1987 65.9632 45.3307C64.439 44.338 64.2272 42.1534 64.0112 40.5869C63.7271 38.5199 63.5927 36.23 63.9461 34.0865C65.896 34.3355 66.6834 36.333 67.1412 37.848Z"
                fill="#C5C5C5"
              />
              <path
                d="M70.5295 38.8188C68.8194 40.7819 67.2415 43.02 65.9395 45.316C67.7044 46.418 69.7762 44.9125 71.0328 43.8471C73.2606 41.9573 74.7083 38.7451 75.0514 35.7169C73.1966 35.4676 71.5618 37.6345 70.5295 38.8188Z"
                fill="#C5C5C5"
              />
              <path
                d="M63.5451 45.5666C63.3984 48.2063 61.68 50.9761 59.3922 52.5527C58.2865 51.0398 58.9799 48.7218 59.356 47.1036C59.8634 44.925 60.566 42.6564 61.6097 40.6435C63.4304 41.6053 63.6423 43.8282 63.5451 45.5666Z"
                fill="#C5C5C5"
              />
              <path
                d="M66.6233 47.7963C64.1444 49.1738 61.6726 50.7994 59.3745 52.5291C60.7509 54.3415 63.5016 53.6188 65.2066 53.0362C68.2126 52.0096 70.892 49.3033 72.2912 46.2966C70.5169 45.3826 68.0876 46.9825 66.6233 47.7963Z"
                fill="#C5C5C5"
              />
              <path
                d="M56.4855 52.0153C54.9975 54.7307 51.6071 56.5022 48.4137 56.9286C48.07 54.9545 50.2059 53 51.3705 51.7213C53.0269 49.9009 54.7536 48.0118 56.6901 46.4378C58.1409 48.1219 57.3731 50.3941 56.4855 52.0153Z"
                fill="#C5C5C5"
              />
              <path
                d="M58.6099 55.4567C55.2278 55.8084 51.7888 56.3146 48.408 56.8983C48.7308 59.3891 52.6837 59.791 54.4776 59.9381C58.1573 60.2396 62.2503 58.7607 65.0992 56.271C63.6846 54.6055 60.412 55.2695 58.6099 55.4567Z"
                fill="#C5C5C5"
              />
              <path
                d="M52.0958 4.77811C54.366 5.42591 57.0248 6.65485 58.3371 8.92343C55.9542 8.66365 53.6117 7.8156 51.3208 7.16945C48.7548 6.4456 46.0529 5.90424 43.5686 4.90511C46.2895 3.8166 49.4966 4.03659 52.0958 4.77811Z"
                fill="#C5C5C5"
              />
              <path
                d="M40.184 3.60415L39.0189 1.03333L37.8757 3.55631L35.217 1.90794L36.9254 5.49805H41.1741L42.8208 1.90794L40.184 3.60415Z"
                fill="#C5C5C5"
              />
              <path
                d="M41.1467 6.05597H36.8914V6.68393H41.1467V6.05597Z"
                fill="#C5C5C5"
              />
              <path
                d="M39.3232 54.6342L40.0089 56.7445H42.2278L40.4327 58.0487L41.1183 60.1589L39.3232 58.8548L37.5281 60.1589L38.2138 58.0487L36.4187 56.7445H38.6376L39.3232 54.6342Z"
                fill="#C5C5C5"
              />
            </svg>